<?xml version="1.0" encoding="UTF-8"?>
<svg width="150" height="40" viewBox="0 0 150 40" fill="none" xmlns="http://www.w3.org/2000/svg">
  <!-- Shield Background -->
  <path d="M20 2L4 8V20C4 30 20 38 20 38C20 38 36 30 36 20V8L20 2Z" fill="#d3ab53"/>
  
  <!-- Star -->
  <path d="M20 8L22.5 15.5H30L24 20L26.5 27.5L20 23L13.5 27.5L16 20L10 15.5H17.5L20 8Z" fill="#d3ab53"/>
  
  <!-- Text (converted to paths) -->
  <g fill="#FFFFFF">
    <!-- M -->
    <path d="M45 25V10h3l4 10 4-10h3v15h-3V15l-3 7h-2l-3-7v10h-3z"/>
    <!-- i -->
    <path d="M63 25V15h3v10h-3zm0-12V10h3v3h-3z"/>
    <!-- 5 -->
    <path d="M68 17.5c0-2.5 2-4 5-4 2.5 0 4.5 1.2 4.5 3.5 0 1.5-1 2.5-2 3 1.5.4 2.5 1.6 2.5 3.2 0 2.5-2.2 3.8-5 3.8-3 0-5-1.5-5-3.8h3c0 .8.8 1.3 2 1.3 1 0 2-.4 2-1.5 0-1-.8-1.5-2-1.5h-1v-2.5h1c1 0 1.8-.4 1.8-1.2 0-.8-.7-1.2-1.8-1.2-1 0-1.8.4-1.8 1.2h-3.2z"/>
    <!-- S -->
    <path d="M83 21.2c0 2.5-2 4.3-5 4.3-3 0-5-1.8-5-4.3h3c0 1 .8 1.8 2 1.8 1 0 2-.6 2-1.7 0-3-6.5-1.5-6.5-6.3 0-2.3 1.8-4 4.8-4 2.8 0 4.7 1.7 4.7 4h-3c0-.8-.7-1.5-1.7-1.5-.9 0-1.8.5-1.8 1.5 0 2.8 6.5 1.2 6.5 6.2z"/>
    <!-- t -->
    <path d="M89 25V13h-2v-2h2v-3h3v3h2v2h-2v12h-3z"/>
    <!-- a -->
    <path d="M97 25.5c-2.8 0-4.5-1.8-4.5-4.2v-6.8h3v6.5c0 1.2.7 2 2 2 1.2 0 2-.8 2-2v-6.5h3v10h-3v-1.2c-.7.8-1.5 1.2-2.5 1.2z"/>
    <!-- r -->
    <path d="M105 25v-10h3v1.5c.6-1 1.5-1.5 2.5-1.5h1v3h-1.2c-1.3 0-2.3.7-2.3 2.5v4.5h-3z"/>
  </g>
</svg> 